<svg width="53" height="51" viewBox="0 0 53 51" fill="none" xmlns="http://www.w3.org/2000/svg">
<path d="M13.4316 7.44679C13.4316 5.09125 15.2775 3.18408 17.5574 3.18408H47.874C50.1539 3.18408 51.9998 5.09125 51.9998 7.44679V45.2743C51.9998 47.6299 50.1539 49.537 47.874 49.537H17.5574C15.2775 49.537 13.4316 47.6299 13.4316 45.2743L13.6272 27.9899" stroke="#1E1E1E" stroke-width="2" stroke-miterlimit="10" stroke-linecap="round"/>
<path d="M19.9231 10.3011H45.8389" stroke="#1E1E1E" stroke-width="2" stroke-miterlimit="10" stroke-linecap="round"/>
<path d="M22.3252 17.4374H45.8389" stroke="#1E1E1E" stroke-width="2" stroke-miterlimit="10" stroke-linecap="round"/>
<path d="M29.9775 24.5734H45.8388" stroke="#1E1E1E" stroke-width="2" stroke-miterlimit="10" stroke-linecap="round"/>
<path d="M34.4211 31.5641L45.8388 31.8483" stroke="#1E1E1E" stroke-width="2" stroke-miterlimit="10" stroke-linecap="round"/>
<path d="M24.6966 39.5023L17.3864 34.046C17.2825 33.9639 17.1908 33.8629 17.1174 33.7492L1.18898 7.15628C0.88948 6.65107 1.05453 5.9943 1.54962 5.70381L8.80482 1.46636C9.2938 1.18218 9.91113 1.35901 10.1801 1.86421L24.9411 29.2402C25.0022 29.3539 25.0389 29.4739 25.0572 29.6002L26.2735 38.5108C26.3958 39.4202 25.4056 40.0391 24.6844 39.5023H24.6966Z" stroke="#1E1E1E" stroke-width="2" stroke-miterlimit="10" stroke-linecap="round"/>
<path d="M17.2275 33.9261L25.039 29.4108" stroke="#1E1E1E" stroke-width="2" stroke-miterlimit="10" stroke-linecap="round"/>
<path d="M4.18408 10.3013L12.2767 5.73547" stroke="#1E1E1E" stroke-width="2" stroke-miterlimit="10" stroke-linecap="round"/>
<path d="M33.5898 41.2958C34.2928 41.3337 34.8123 41.6179 35.1546 42.1483C35.3807 42.4957 35.4479 42.8493 35.3624 43.2093C35.3196 43.4366 35.3318 43.4114 35.399 43.1398C35.2829 43.424 35.2707 43.4808 35.3685 43.2977C35.4968 43.1651 35.7903 42.4515 35.503 43.0577C35.5885 42.8809 35.7964 42.7041 35.9247 42.5651C36.0714 42.4073 36.2242 42.2557 36.3831 42.1105C36.487 42.0157 36.597 41.921 36.7071 41.8263L36.487 42.0094C36.5971 41.8579 36.8538 41.7505 37.0188 41.6495C37.141 41.5737 37.2633 41.5042 37.3855 41.4347C37.6728 41.2769 37.6361 41.3021 37.2694 41.5105H35.8086C34.904 41.1253 34.4211 40.519 34.36 39.6855C34.3417 39.4455 34.3906 39.2245 34.5128 39.0224C34.525 39.0224 34.2072 39.5213 34.195 39.5402C33.8099 40.0959 33.4982 40.5759 33.2781 41.239C32.7341 42.8998 33.2903 44.9459 34.7939 45.8806C35.5885 46.3732 36.5543 46.5879 37.4711 46.329C38.1434 46.1332 38.6385 45.729 39.1947 45.3312C39.6226 45.0217 40.0688 44.7312 40.5211 44.4597C40.7167 44.346 40.9184 44.245 41.114 44.125C41.4257 43.9671 41.3768 43.9797 40.9795 44.1692C41.9452 43.9418 41.2362 43.6135 38.8463 43.1777L38.4735 41.7442C38.4918 41.5421 38.5469 41.3526 38.6386 41.1758C38.7363 40.9548 38.7302 40.9611 38.6141 41.1885C38.4979 41.3969 38.4063 41.5989 38.3146 41.8263C38.0945 42.3694 37.9601 42.9188 37.9784 43.5187C38.0395 45.2364 39.372 46.79 41.1018 46.7584C42.202 46.7394 43.1494 46.1584 44.1029 45.6532C44.5613 45.4133 43.8584 45.6974 44.1701 45.628C44.2862 45.6027 44.5552 45.4385 44.6774 45.4827C44.3229 45.5206 44.2495 45.5396 44.4574 45.5332C44.6713 45.5332 44.5979 45.5143 44.2312 45.4764C44.763 45.6027 43.8095 45.1796 44.3107 45.5143C45.5209 46.3226 47.4035 45.8111 48.0758 44.4976C48.7971 43.083 48.3814 41.4726 47.0917 40.6075C45.8937 39.8118 44.3718 39.6981 43.0149 40.0517C42.4281 40.2033 41.8719 40.4812 41.334 40.7464C41.1323 40.8474 40.9306 40.9548 40.7289 41.0621C40.5945 41.1316 40.46 41.2011 40.3255 41.2705C40.5455 41.1569 40.7778 41.0874 41.0223 41.0685L42.4098 41.4537C43.2716 42.1294 43.6078 42.9188 43.4244 43.8219C43.2227 44.2702 43.1982 44.3523 43.3572 44.0555C43.565 43.6766 43.7545 43.2661 43.8645 42.843C44.1701 41.6431 43.8523 40.317 42.9782 39.4518C41.4868 37.9741 39.5309 38.5172 37.9356 39.4265C37.41 39.7233 36.9027 40.0517 36.4137 40.4117C36.1875 40.5759 35.888 40.7401 35.7047 40.9485C36.7682 39.7549 38.5346 41.4537 38.5469 42.5336C38.5591 42.7862 38.5041 43.0262 38.3818 43.2409C38.4429 43.1209 38.5102 43.0072 38.5835 42.8998C38.7302 42.6725 38.9014 42.4641 39.0481 42.2368C39.5187 41.5042 39.7937 40.6517 39.8426 39.7739C39.9649 37.4562 37.9051 35.3596 35.6191 36.0479C34.3111 36.4395 33.0398 37.4752 32.1046 38.4603C31.0105 39.6097 29.9225 41.1379 29.892 42.8241C29.8492 45.1228 31.4261 46.7773 33.5898 46.9731C35.0262 47.1057 36.4015 45.5711 36.3403 44.1313C36.267 42.483 35.1301 41.4284 33.5898 41.2895V41.2958Z" fill="#212525"/>
</svg>
