<svg width="47" height="52" viewBox="0 0 47 52" fill="none" xmlns="http://www.w3.org/2000/svg">
<g clip-path="url(#clip0_364_658)">
<path d="M20.9341 8.74248H17.3408C16.9294 8.74248 16.5588 9.53381 16.5373 10.5908C16.5136 11.7197 16.8626 12.6493 17.2977 12.6493H22.1599C22.5714 12.6493 22.9419 13.4407 22.9634 14.4976C22.9871 15.6265 22.6381 16.5562 22.203 16.5562H15.8199C15.4085 16.5562 15.0379 17.3475 15.0164 18.4045C14.9927 19.5334 15.3417 20.4631 15.7769 20.4631H22.162C22.5735 20.4631 22.944 21.2544 22.9656 22.3114C22.9893 23.4403 22.6403 24.3699 22.2051 24.3699H14.1267C13.7152 24.3699 13.3447 25.1613 13.3232 26.2182C13.2995 27.3471 13.6485 28.2768 14.0836 28.2768H22.1599C22.5714 28.2768 22.9419 29.0681 22.9634 30.1251C22.9871 31.254 22.6381 32.1837 22.203 32.1837H20.9341V38.6195C20.9341 41.0654 21.7053 43.0465 22.6575 43.0465H35.2793C36.2314 43.0465 37.0027 41.0654 37.0027 38.6195V9.25712C37.0027 6.81118 36.2314 4.83008 35.2793 4.83008H22.4572C21.617 4.83008 20.9341 6.57876 20.9341 8.74248Z" stroke="#212525" stroke-width="2" stroke-miterlimit="10" stroke-linecap="round"/>
<path d="M30.6303 33.8992L25.4838 28.7583C25.4041 28.6808 25.3481 28.5037 25.3308 28.2934C25.1585 26.1186 24.4131 14.2984 28.4049 13.2636C32.0004 12.3339 32.6574 17.9729 32.7759 20.0591C32.7974 20.452 32.6768 20.8007 32.5217 20.7896L29.2386 20.4852C29.0986 20.4742 28.9823 20.7619 28.9823 21.1216V24.6964C28.9823 24.9676 29.0512 25.2111 29.1503 25.2996L32.5756 28.2436C32.7027 28.3543 32.7737 28.7029 32.7328 29.035C32.6359 29.8152 32.4291 31.2595 32.065 32.7205C31.7591 33.9434 31.1538 34.4249 30.6281 33.8992H30.6303Z" stroke="#212525" stroke-width="2" stroke-miterlimit="10" stroke-linecap="round"/>
</g>
<defs>
<clipPath id="clip0_364_658">
<rect width="24.3279" height="39.8987" fill="white" transform="translate(13 4)"/>
</clipPath>
</defs>
</svg>
