<svg width="66" height="43" viewBox="0 0 66 43" fill="none" xmlns="http://www.w3.org/2000/svg">
<g clip-path="url(#clip0_41_3935)">
<path d="M21.5246 5.1111H11.7763C10.66 5.1111 9.65481 5.96394 9.59636 7.10305C9.53208 8.3197 10.4789 9.32164 11.6594 9.32164H24.8501C25.9663 9.32164 26.9716 10.1745 27.03 11.3136C27.0943 12.5302 26.1475 13.5322 24.9669 13.5322H7.6502C6.53394 13.5322 5.52871 14.385 5.47027 15.5241C5.40598 16.7408 6.35276 17.7427 7.53332 17.7427H24.8559C25.9722 17.7427 26.9774 18.5956 27.0358 19.7347C27.1001 20.9513 26.1533 21.9533 24.9728 21.9533H3.05656C1.94029 21.9533 0.93507 22.8061 0.876626 23.9452C0.812339 25.1619 1.75912 26.1638 2.93967 26.1638H24.8501C25.9663 26.1638 26.9716 27.0166 27.03 28.1558C27.0943 29.3724 26.1475 30.3743 24.9669 30.3743H21.5246V37.3104C21.5246 39.9465 23.6169 42.0816 26.2001 42.0816H60.442C63.0252 42.0816 65.1175 39.9465 65.1175 37.3104V5.66574C65.1175 3.02968 63.0252 0.894592 60.442 0.894592H25.6566C23.3773 0.894592 21.5246 2.7792 21.5246 5.1111Z" stroke="#212525" stroke-width="2" stroke-miterlimit="10" stroke-linecap="round"/>
<path d="M47.83 32.2232L33.8679 26.6827C33.6516 26.5992 33.4997 26.4083 33.4529 26.1817C32.9854 23.8379 30.9632 11.0989 41.7928 9.98362C51.547 8.98168 53.3295 15.0589 53.6509 17.3073C53.7094 17.7308 53.3821 18.1065 52.9613 18.0946L44.0545 17.7666C43.6747 17.7546 43.3591 18.0648 43.3591 18.4524V22.3051C43.3591 22.5974 43.5461 22.8598 43.8149 22.9552L53.1074 26.128C53.4522 26.2473 53.6451 26.623 53.534 26.9809C53.271 27.8218 52.71 29.3784 51.7223 30.9528C50.8924 32.2709 49.2501 32.7897 47.8241 32.2232H47.83Z" stroke="#212525" stroke-width="2" stroke-miterlimit="10" stroke-linecap="round"/>
</g>
<defs>
<clipPath id="clip0_41_3935">
<rect width="66" height="43" fill="white"/>
</clipPath>
</defs>
</svg>
