<svg width="28" height="43" viewBox="0 0 28 43" fill="none" xmlns="http://www.w3.org/2000/svg">
<path d="M19.226 7.85754C21.9867 9.64899 23.8319 12.8899 23.8319 16.5918C23.8319 22.23 19.5498 26.8015 14.2685 26.8015C8.98719 26.8015 4.70508 22.23 4.70508 16.5918C4.70508 14.8524 5.1124 13.2133 5.83305 11.7787" stroke="#1E1E1E" stroke-width="2" stroke-miterlimit="10" stroke-linecap="round"/>
<path d="M2 8.37784C2 8.37784 7.00625 18.7734 19.4731 8.02476C19.4731 8.02476 22.7735 9.81992 23.616 14.4249C23.616 14.4249 27.3689 6.15526 19.4662 4.82469C19.4662 4.82469 17.4226 -1.53086 9.485 4.82469C4.49616 8.82385 2 8.37784 2 8.37784Z" stroke="#1E1E1E" stroke-width="2" stroke-miterlimit="10" stroke-linecap="round"/>
<path d="M8.4859 8.45587L9.89935 7.04724" stroke="#1E1E1E" stroke-width="2" stroke-miterlimit="10" stroke-linecap="round"/>
<path d="M10.8253 6.38188C10.8253 6.38188 14.2684 4.16301 15.9325 5.49359" stroke="#1E1E1E" stroke-width="2" stroke-miterlimit="10" stroke-linecap="round"/>
<path d="M19.8908 30.3546H8.6459C5.0914 30.3546 2.2088 33.432 2.2088 37.2268V41.8987H26.3279V37.2268C26.3279 33.432 23.4453 30.3546 19.8908 30.3546V30.3546Z" stroke="#1E1E1E" stroke-width="2" stroke-miterlimit="10" stroke-linecap="round"/>
<path d="M5.74303 37.2343L5.7356 41.8987" stroke="#1E1E1E" stroke-width="2" stroke-miterlimit="10" stroke-linecap="round"/>
<path d="M10.7313 30.5775H17.3843V32.7406C17.3843 33.5063 16.7994 34.1307 16.0822 34.1307H12.0334C11.3162 34.1307 10.7313 33.5063 10.7313 32.7406V30.5775V30.5775Z" stroke="#1E1E1E" stroke-width="2" stroke-miterlimit="10" stroke-linecap="round"/>
<path d="M11.8732 41.8987L12.2875 34.1271" stroke="#1E1E1E" stroke-width="2" stroke-miterlimit="10" stroke-linecap="round"/>
<path d="M16.3642 41.8987L15.8315 34.1271" stroke="#1E1E1E" stroke-width="2" stroke-miterlimit="10" stroke-linecap="round"/>
</svg>
