<svg width="35" height="35" viewBox="0 0 35 35" fill="none" xmlns="http://www.w3.org/2000/svg">
<path d="M19.5513 5.26697H8.05269C4.38629 5.26697 1.41418 8.17292 1.41418 11.7577C1.41418 15.3425 4.38629 18.2485 8.05269 18.2485H10.4827" stroke="#1E1E1E" stroke-width="2" stroke-miterlimit="10" stroke-linecap="round"/>
<path d="M7.36755 30.1642L25.6448 29.9855C29.3112 29.9855 32.2833 27.0796 32.2833 23.4948C32.2833 19.91 29.3112 17.004 25.6448 17.004H23.2147" stroke="#1E1E1E" stroke-width="2" stroke-miterlimit="10" stroke-linecap="round"/>
<path d="M3.9112 33.0106C5.51901 33.0106 6.82239 31.7362 6.82239 30.1641C6.82239 28.5921 5.51901 27.3177 3.9112 27.3177C2.30339 27.3177 1 28.5921 1 30.1641C1 31.7362 2.30339 33.0106 3.9112 33.0106Z" stroke="#1E1E1E" stroke-width="2" stroke-miterlimit="10" stroke-linecap="round"/>
<path d="M22.1731 11.3142H11.4753C10.9136 11.3142 10.4583 11.7594 10.4583 12.3087V22.411C10.4583 22.9602 10.9136 23.4055 11.4753 23.4055H22.1731C22.7348 23.4055 23.1902 22.9602 23.1902 22.411V12.3087C23.1902 11.7594 22.7348 11.3142 22.1731 11.3142Z" stroke="#1E1E1E" stroke-width="2" stroke-miterlimit="10" stroke-linecap="round"/>
<path d="M14.4444 11.3142V15.5034C14.4444 15.7237 14.6728 15.8696 14.8799 15.7833L17.0328 14.8722L19.1066 15.828C19.3137 15.9232 19.5512 15.7744 19.5512 15.5511V11.3142" stroke="#1E1E1E" stroke-width="2" stroke-miterlimit="10" stroke-linecap="round"/>
<path d="M16.7802 8.11341L19.3229 6.00243C19.7949 5.60941 19.8162 4.90376 19.3655 4.48693L17.1425 2.42358" stroke="#1E1E1E" stroke-width="2" stroke-miterlimit="10" stroke-linecap="round"/>
<path d="M28.6441 5.62134C28.8443 5.62134 29.0065 5.46271 29.0065 5.26703C29.0065 5.07135 28.8443 4.91272 28.6441 4.91272C28.444 4.91272 28.2817 5.07135 28.2817 5.26703C28.2817 5.46271 28.444 5.62134 28.6441 5.62134Z" stroke="#1E1E1E" stroke-width="2" stroke-miterlimit="10" stroke-linecap="round"/>
<path d="M32.2284 7.70252C32.7461 6.97603 33.0415 6.08579 33.008 5.12706C32.9349 2.9208 31.0773 1.0897 28.8208 1.00335C26.3299 0.908077 24.2805 2.8553 24.2805 5.267C24.2805 6.20191 24.5911 7.06535 25.1148 7.771L28.0321 12.0495C28.3366 12.4961 29.0127 12.4961 29.3141 12.0436L32.2284 7.69954V7.70252Z" stroke="#1E1E1E" stroke-width="2" stroke-miterlimit="10" stroke-linecap="round"/>
</svg>
