<svg width="55" height="57" viewBox="0 0 55 57" fill="none" xmlns="http://www.w3.org/2000/svg">
<path d="M45.8156 9.69519H49.9156C52.09 9.69519 53.8497 11.5133 53.8497 13.7599V53.5131C53.8497 54.5782 53.0143 55.4475 51.9774 55.4475H2.87225C1.84133 55.4475 1 54.5844 1 53.5131V13.7599C1 11.5133 2.75968 9.69519 4.9341 9.69519H9.38959" stroke="#1E1E1E" stroke-width="2" stroke-miterlimit="10" stroke-linecap="round"/>
<path d="M29.3208 18.3694H25.3926V55.6372H29.3208V18.3694Z" stroke="#1E1E1E" stroke-width="2" stroke-miterlimit="10" stroke-linecap="round"/>
<path d="M26.1924 13.7965L21.4703 22.0238C21.1622 22.5625 20.4216 22.6054 20.0542 22.1034L9.80425 7.86474C9.56726 7.53418 9.58503 7.07507 9.84573 6.76287L14.1353 1.69424C14.2953 1.50447 14.5323 1.39429 14.7752 1.39429H40.3824C40.6372 1.39429 40.8742 1.5106 41.0341 1.71261L45.3771 7.12404C45.6318 7.44236 45.6378 7.90147 45.3948 8.22591L34.8664 22.1463C34.499 22.636 33.7644 22.587 33.4622 22.0483L29.0008 14.1516C28.8112 13.8149 28.8586 13.3802 29.1252 13.0986L36.9282 4.73664C37.4496 4.17958 37.0645 3.24911 36.318 3.24911H18.6441C17.8798 3.24911 17.5006 4.21019 18.0516 4.76113L26.0502 12.7314C26.3346 13.0129 26.3938 13.4598 26.1924 13.8149V13.7965Z" stroke="#1E1E1E" stroke-width="2" stroke-miterlimit="10" stroke-linecap="round"/>
<path d="M27.3539 23.903C27.7498 23.903 28.0708 23.5714 28.0708 23.1623C28.0708 22.7533 27.7498 22.4216 27.3539 22.4216C26.9579 22.4216 26.637 22.7533 26.637 23.1623C26.637 23.5714 26.9579 23.903 27.3539 23.903Z" stroke="#1E1E1E" stroke-width="2" stroke-miterlimit="10" stroke-linecap="round"/>
<path d="M27.3539 33.4954C27.7498 33.4954 28.0708 33.1638 28.0708 32.7547C28.0708 32.3457 27.7498 32.014 27.3539 32.014C26.9579 32.014 26.637 32.3457 26.637 32.7547C26.637 33.1638 26.9579 33.4954 27.3539 33.4954Z" stroke="#1E1E1E" stroke-width="2" stroke-miterlimit="10" stroke-linecap="round"/>
<path d="M27.3539 43.0881C27.7498 43.0881 28.0708 42.7565 28.0708 42.3474C28.0708 41.9383 27.7498 41.6067 27.3539 41.6067C26.9579 41.6067 26.637 41.9383 26.637 42.3474C26.637 42.7565 26.9579 43.0881 27.3539 43.0881Z" stroke="#1E1E1E" stroke-width="2" stroke-miterlimit="10" stroke-linecap="round"/>
<path d="M27.3539 52.6806C27.7498 52.6806 28.0708 52.349 28.0708 51.9399C28.0708 51.5308 27.7498 51.1992 27.3539 51.1992C26.9579 51.1992 26.637 51.5308 26.637 51.9399C26.637 52.349 26.9579 52.6806 27.3539 52.6806Z" stroke="#1E1E1E" stroke-width="2" stroke-miterlimit="10" stroke-linecap="round"/>
</svg>
