<svg width="49" height="56" viewBox="0 0 49 56" fill="none" xmlns="http://www.w3.org/2000/svg">
<path d="M29.6422 4.10781C30.4696 4.10781 31.1403 3.4121 31.1403 2.5539C31.1403 1.69571 30.4696 1 29.6422 1C28.8148 1 28.144 1.69571 28.144 2.5539C28.144 3.4121 28.8148 4.10781 29.6422 4.10781Z" stroke="#1E1E1E" stroke-width="2" stroke-miterlimit="10" stroke-linecap="round"/>
<path d="M37.4946 11.0823C38.7341 11.0823 39.7389 10.0414 39.7389 8.75745C39.7389 7.47348 38.7341 6.43262 37.4946 6.43262C36.2551 6.43262 35.2502 7.47348 35.2502 8.75745C35.2502 10.0414 36.2551 11.0823 37.4946 11.0823Z" stroke="#1E1E1E" stroke-width="2" stroke-miterlimit="10" stroke-linecap="round"/>
<path d="M43.4814 20.7791C45.133 20.7791 46.4719 19.3904 46.4719 17.6773C46.4719 15.9643 45.133 14.5756 43.4814 14.5756C41.8298 14.5756 40.491 15.9643 40.491 17.6773C40.491 19.3904 41.8298 20.7791 43.4814 20.7791Z" stroke="#1E1E1E" stroke-width="2" stroke-miterlimit="10" stroke-linecap="round"/>
<path d="M44.2275 32.4092C46.0884 32.4092 47.5969 30.8479 47.5969 28.9219C47.5969 26.996 46.0884 25.4347 44.2275 25.4347C42.3667 25.4347 40.8582 26.996 40.8582 28.9219C40.8582 30.8479 42.3667 32.4092 44.2275 32.4092Z" stroke="#1E1E1E" stroke-width="2" stroke-miterlimit="10" stroke-linecap="round"/>
<path d="M40.4851 42.4917C42.346 42.4917 43.8545 40.9304 43.8545 39.0045C43.8545 37.0785 42.346 35.5172 40.4851 35.5172C38.6242 35.5172 37.1157 37.0785 37.1157 39.0045C37.1157 40.9304 38.6242 42.4917 40.4851 42.4917Z" stroke="#1E1E1E" stroke-width="2" stroke-miterlimit="10" stroke-linecap="round"/>
<path d="M28.3599 50.2671C11.8219 53.664 -2.86224 38.4382 0.477992 21.3814C1.67301 15.1296 5.33969 9.45004 10.4754 5.93268C13.0228 4.16798 15.9142 2.94533 18.9105 2.331C19.0795 2.29486 19.2486 2.4093 19.2836 2.58998C19.3185 2.76465 19.2078 2.93931 19.0387 2.97545C16.1299 3.6199 13.3492 4.85459 10.9067 6.5952C6.01589 10.0523 2.55908 15.5693 1.50397 21.5862C-0.20404 30.5843 3.7949 40.3294 11.274 45.2621C16.1532 48.5807 22.2973 49.7672 27.9985 48.4964C29.1294 48.2675 29.4908 50.0081 28.3482 50.2671H28.3599Z" fill="#212525"/>
<path d="M25.2588 45.2261L30.5985 47.3642C31.1231 47.575 31.3796 48.1833 31.1814 48.7254L29.1178 54.2604" stroke="#1E1E1E" stroke-width="2" stroke-miterlimit="10" stroke-linecap="round"/>
</svg>
