<svg width="39" height="36" viewBox="0 0 39 36" fill="none" xmlns="http://www.w3.org/2000/svg">
<path d="M1 25.1363L7.07505 18.5002" stroke="#1E1E1E" stroke-width="2" stroke-miterlimit="10" stroke-linecap="round"/>
<path d="M10.4658 34.2116L16.6473 27.6218C17.329 26.8939 18.2841 26.482 19.2818 26.482H21.9696C22.5697 26.482 23.1484 26.2441 23.5745 25.8216L32.5432 16.9558C33.3989 16.1108 33.4025 14.7332 32.5539 13.8846C31.7088 13.0396 30.3383 13.0396 29.4933 13.8846L27.544 15.8339L30.4378 12.8017C31.2118 11.9921 31.1727 10.7068 30.3525 9.947C29.5785 9.22979 28.382 9.23334 27.6115 9.95765L25.4989 11.946L28.6376 9.08066C29.4933 8.29953 29.5217 6.96452 28.7051 6.14433C27.9417 5.38096 26.7132 5.349 25.9108 6.06977L23.2478 8.46641L26.8375 5.16437C27.6861 4.38325 27.7606 3.06598 26.9972 2.19609C26.1877 1.26939 24.7604 1.22323 23.8905 2.09313L22.8928 3.09084L19.7683 6.21535" stroke="#1E1E1E" stroke-width="2" stroke-miterlimit="10" stroke-linecap="round"/>
<path d="M22.3247 2.8387L20.8015 1.31551C20.4855 0.999506 20.0062 0.910742 19.5978 1.09537L16.1822 2.63277" stroke="#1E1E1E" stroke-width="2" stroke-miterlimit="10" stroke-linecap="round"/>
<path d="M15.1529 2.51579L18.952 6.14092C19.7153 6.86879 19.7402 8.07599 19.0088 8.83581L18.952 8.89262C18.217 9.65245 17.0027 9.6702 16.25 8.92813L12.5077 5.24263C11.7443 4.48991 11.7514 3.25786 12.5254 2.51579C13.2604 1.81277 14.4179 1.81277 15.1529 2.51579V2.51579Z" stroke="#1E1E1E" stroke-width="2" stroke-miterlimit="10" stroke-linecap="round"/>
<path d="M13.2 6.05921L16.3281 9.06655C17.0914 9.79797 17.1127 11.0123 16.3813 11.7721L16.3387 11.8147C15.6002 12.5816 14.3752 12.5958 13.619 11.8467L10.5335 8.79671C9.7879 8.06174 9.77369 6.86165 10.5016 6.10892C11.233 5.3491 12.4402 5.3278 13.2 6.05921V6.05921Z" stroke="#1E1E1E" stroke-width="2" stroke-miterlimit="10" stroke-linecap="round"/>
<path d="M10.9099 9.46415L13.5089 11.8466C14.3007 12.5709 14.3362 13.803 13.5941 14.5734L13.548 14.6196C12.8201 15.3723 11.6236 15.4007 10.8637 14.6799L8.30732 12.2514C7.5404 11.5235 7.512 10.3056 8.25052 9.54581C8.96774 8.80374 10.1465 8.76824 10.9099 9.46415V9.46415Z" stroke="#1E1E1E" stroke-width="2" stroke-miterlimit="10" stroke-linecap="round"/>
<path d="M9.07059 12.9545L10.9666 14.6979C11.7548 15.4222 11.7903 16.6542 11.0483 17.4247L11.0092 17.4673C10.2778 18.2236 9.07415 18.2485 8.31787 17.517L6.46091 15.7346C5.67978 14.9855 5.67978 13.7357 6.46091 12.983C7.18877 12.287 8.32852 12.2764 9.07059 12.9545V12.9545Z" stroke="#1E1E1E" stroke-width="2" stroke-miterlimit="10" stroke-linecap="round"/>
<path d="M37.6241 25.1363L30.9881 18.5002" stroke="#1E1E1E" stroke-width="2" stroke-miterlimit="10" stroke-linecap="round"/>
<path d="M27.4305 34.2115L20.3542 26.4819" stroke="#1E1E1E" stroke-width="2" stroke-miterlimit="10" stroke-linecap="round"/>
</svg>
