<svg width="20" height="19" viewBox="0 0 20 19" fill="none" xmlns="http://www.w3.org/2000/svg">
<path d="M9.97855 19C7.44027 19 4.90198 19 2.3637 19C0.802225 19 0.0107931 18.1956 0.00722808 16.6086C0.00722808 13.5444 0.0214881 10.4766 9.80672e-05 7.41243C-0.00703195 6.40688 0.374424 5.70848 1.2122 5.18194C3.68988 3.62791 6.1533 2.04829 8.60959 0.454039C9.56858 -0.167573 10.467 -0.141977 11.4188 0.475978C13.8395 2.04829 16.2672 3.60597 18.7164 5.13441C19.6148 5.69386 20.0105 6.42882 19.9998 7.51481C19.9606 10.5388 19.9891 13.5627 19.9855 16.583C19.9855 18.1809 19.1977 18.9963 17.654 18.9963C15.0943 19 12.5382 18.9963 9.97855 18.9963V19ZM16.5132 7.75614C16.9196 7.46362 17.2904 7.16013 17.1157 6.5824C16.941 6.00466 16.4704 5.96078 15.9713 5.96444C14.007 5.97175 12.0391 5.96444 10.0748 5.96444C8.04632 5.96444 6.0214 5.96444 3.99291 5.96444C3.51876 5.96444 3.06957 6.00832 2.88775 6.54949C2.69524 7.12356 3.03748 7.44168 3.45103 7.73786C5.32622 9.09078 7.19428 10.451 9.06948 11.8112C9.84665 12.3744 10.1497 12.3744 10.9482 11.7966L16.5132 7.7598V7.75614Z" fill="#D93938"/>
</svg>
