<svg width="18" height="23" viewBox="0 0 18 23" fill="none" xmlns="http://www.w3.org/2000/svg">
<g clip-path="url(#clip0_41_2009)">
<path d="M9.10201 0.232323C15.0502 0.340381 19.164 5.85671 17.6997 11.7674C17.0078 14.5445 15.5168 16.884 13.6181 18.9533C12.4328 20.2445 11.0972 21.4008 9.82072 22.611C9.33264 23.0702 8.79092 23.1459 8.23311 22.7245C4.93991 20.2229 2.14015 17.3 0.681267 13.3181C-1.11015 8.40146 0.724175 3.29035 5.10618 1.17242C6.3237 0.58351 7.71821 0.378201 9.03228 0C9.05373 0.0756401 9.07519 0.156683 9.09664 0.232323H9.10201ZM8.96255 5.70543C6.98877 5.71083 5.39581 7.33709 5.40653 9.33075C5.41726 11.3136 7.04777 12.9453 9.00546 12.9291C10.9685 12.9129 12.5883 11.2596 12.5776 9.29293C12.5668 7.31008 10.9417 5.70002 8.96792 5.71083L8.96255 5.70543Z" fill="#D93938"/>
</g>
<defs>
<clipPath id="clip0_41_2009">
<rect width="18" height="23" fill="white"/>
</clipPath>
</defs>
</svg>
