<svg width="21" height="20" viewBox="0 0 21 20" fill="none" xmlns="http://www.w3.org/2000/svg">
<path d="M10.0434 20.0001C4.42685 19.9351 -0.0685929 15.4174 0.000792512 9.90668C0.0701779 4.32732 4.64596 -0.0783895 10.2881 0.00105777C15.8827 0.080505 20.3088 4.61261 20.2285 10.1775C20.1481 15.6486 15.5687 20.0615 10.0434 19.9965V20.0001ZM4.24061 15.663C5.23391 15.403 6.07384 15.1574 6.92838 14.9732C7.20957 14.9119 7.55285 14.9371 7.81578 15.0419C8.97707 15.5113 10.1639 15.6594 11.3873 15.3958C14.7105 14.6735 16.7081 11.3765 15.7732 8.16968C14.8456 4.99179 11.3727 3.22951 8.22844 4.34177C5.0148 5.47931 3.49928 9.00387 4.85412 12.1312C4.97463 12.4057 4.99289 12.7704 4.92716 13.0665C4.74821 13.8899 4.49989 14.7024 4.23695 15.663H4.24061Z" fill="#D93938"/>
<path d="M5.80727 13.962C6.3441 13.0014 6.09212 12.1203 5.71963 11.1452C4.94908 9.11212 5.90952 6.83704 7.81945 5.73922C9.69285 4.66308 12.0994 5.00614 13.5894 6.5662C15.094 8.14431 15.3131 10.5061 14.1189 12.3081C12.9101 14.1354 10.5693 14.9515 8.54982 14.092C7.7245 13.7417 7.01239 13.7056 6.21993 13.9945C6.14324 14.0234 6.05925 14.0306 5.97526 14.0415C5.96065 14.0415 5.94239 14.027 5.80362 13.9584L5.80727 13.962ZM7.27897 8.46932C7.30819 8.61377 7.31184 8.80878 7.38488 8.97489C8.15177 10.7516 9.46279 11.9181 11.3983 12.3045C11.7087 12.3658 12.1323 12.2395 12.3952 12.0517C12.6472 11.8711 12.9722 11.3619 12.8882 11.2319C12.6655 10.8816 12.2747 10.5855 11.884 10.4158C11.705 10.3399 11.2924 10.5422 11.128 10.7372C10.8834 11.0261 10.6606 11.0947 10.3867 10.8888C9.91197 10.5241 9.45183 10.1377 9.00996 9.73325C8.74702 9.49491 8.73242 9.2349 8.98439 8.92434C9.41531 8.38265 9.03187 7.89152 8.75067 7.45095C8.64477 7.28845 8.31245 7.14039 8.12621 7.18011C7.58573 7.29567 7.39218 7.74707 7.30819 8.24542C7.29723 8.30681 7.29358 8.3682 7.28263 8.47293L7.27897 8.46932Z" fill="#D93938"/>
</svg>
