<svg width="126" height="126" viewBox="0 0 126 126" fill="none" xmlns="http://www.w3.org/2000/svg">
<g filter="url(#filter0_d_41_5690)">
<circle cx="63" cy="59" r="38" fill="white"/>
</g>
<path d="M43 68.346C43 68.2574 43.0101 68.1689 43.0353 68.0854L47.4943 52.803C47.5245 52.6997 47.5699 52.6063 47.6354 52.5178C48.0989 51.8835 50.1999 49.2872 53.0517 50.1231C55.9488 50.9689 57.2941 52.8276 57.546 53.216C57.5762 53.2652 57.6165 53.3144 57.6568 53.3537L63.7584 59.6378C63.9398 59.8246 64.1967 59.9328 64.4587 59.9328H70.1975C70.7316 59.9328 71.1649 59.5099 71.1649 58.9887C71.1649 58.5216 71.5126 58.1282 71.9862 58.0544L81.4484 56.6187C82.0328 56.5301 82.5669 56.9727 82.5669 57.5529V64.8597C82.5669 65.4252 82.058 65.8677 81.4836 65.7989L78.9795 65.5039C78.254 65.4203 77.6947 66.1185 77.9618 66.7823L80.7631 73.8433C81.01 74.4628 80.5415 75.1267 79.8613 75.1267H74.6062C74.1426 75.1267 73.7496 74.807 73.6589 74.3694L72.0315 66.4185C71.9408 65.9661 71.5226 65.6465 71.049 65.6612L62.2418 65.9366C61.9697 65.9464 61.7027 65.8382 61.5112 65.6465L57.1631 61.2407C56.6189 60.69 55.6667 60.9654 55.5155 61.7128L54.2105 68.1984C54.1098 68.7049 54.4423 69.1966 54.9613 69.3048L65.8242 71.5372C66.1517 71.606 66.4187 71.8322 66.5346 72.1371L67.1896 73.8925C67.4163 74.4973 66.9679 75.1414 66.3078 75.1611L50.603 75.5643C46.4362 75.6725 43 72.4026 43 68.3361V68.346Z" fill="#D93938"/>
<path d="M60.5691 51.1115L50.6988 47.3647C50.5477 47.3057 50.4368 47.1778 50.4066 47.0254C50.0791 45.4421 48.6482 36.8273 56.3016 36.075C63.1942 35.3964 64.4538 39.5071 64.6856 41.0265C64.7309 41.3117 64.4941 41.5674 64.1968 41.5576L57.9038 41.3363C57.6368 41.3264 57.41 41.5379 57.41 41.7985V44.4046C57.41 44.6012 57.541 44.7783 57.7325 44.8422L64.3026 46.991C64.5495 47.0696 64.6856 47.3253 64.6049 47.5663C64.4185 48.1366 64.0255 49.1889 63.3252 50.251C62.7407 51.141 61.5819 51.495 60.5691 51.1115V51.1115Z" fill="#D93938"/>
<defs>
<filter id="filter0_d_41_5690" x="0" y="0" width="126" height="126" filterUnits="userSpaceOnUse" color-interpolation-filters="sRGB">
<feFlood flood-opacity="0" result="BackgroundImageFix"/>
<feColorMatrix in="SourceAlpha" type="matrix" values="0 0 0 0 0 0 0 0 0 0 0 0 0 0 0 0 0 0 127 0" result="hardAlpha"/>
<feOffset dy="4"/>
<feGaussianBlur stdDeviation="12.5"/>
<feComposite in2="hardAlpha" operator="out"/>
<feColorMatrix type="matrix" values="0 0 0 0 0 0 0 0 0 0 0 0 0 0 0 0 0 0 0.1 0"/>
<feBlend mode="normal" in2="BackgroundImageFix" result="effect1_dropShadow_41_5690"/>
<feBlend mode="normal" in="SourceGraphic" in2="effect1_dropShadow_41_5690" result="shape"/>
</filter>
</defs>
</svg>
