<svg width="123" height="111" viewBox="0 0 123 111" fill="none" xmlns="http://www.w3.org/2000/svg">
<g clip-path="url(#clip0_98_392)">
<path d="M61.5 105.324C91.9819 105.324 116.692 83.0898 116.692 55.6622C116.692 28.2345 91.9819 6 61.5 6C31.0181 6 6.30769 28.2345 6.30769 55.6622C6.30769 83.0898 31.0181 105.324 61.5 105.324Z" fill="#101419"/>
<path d="M40.9199 55.0461L39.7363 78.6107L31.1706 79.7937L31.6222 71.1065L23.7085 72.1977L23.2569 80.8849L14.6912 82.0679L15.8748 58.5033L24.4405 57.3203L24.0071 65.67L31.9209 64.5788L32.3542 56.2291L40.9199 55.0461V55.0461Z" fill="url(#paint0_linear_98_392)"/>
<path d="M53.1638 59.3061L53.04 62.0653L63.7834 60.5809L63.4957 66.3024L52.7158 67.7901L52.5738 70.8836L65.313 69.1239L64.9962 75.1174L43.8698 78.0339L45.0534 54.4694L65.7063 51.6184L65.3895 57.6119L53.1565 59.2996L53.1638 59.3061Z" fill="url(#paint1_linear_98_392)"/>
<path d="M69.4866 51.1039L78.0522 49.9209L77.1927 67.3215L88.6609 65.7387L88.3368 71.9027L68.303 74.6684L69.4866 51.1039V51.1039Z" fill="url(#paint2_linear_98_392)"/>
<path d="M115.13 52.5556C114.318 47.7877 109.991 45.5102 103.166 46.4507L91.8767 48.0105L90.6968 71.5128H90.6895V73.8263L12.6664 84.6042V91.571L99.2624 79.5773V70.3921L99.5392 64.605L103.931 63.9987C111.736 62.9206 116.117 58.3394 115.134 52.5589L115.13 52.5556ZM103.352 57.9921L99.8305 58.4771L100.115 52.9554L102.981 52.5589C104.94 52.2869 106.291 52.8047 106.572 54.4366C106.899 56.3634 105.712 57.6644 103.352 57.9888V57.9921Z" fill="url(#paint3_linear_98_392)"/>
<path d="M35.3588 30.3706L34.3318 49.9799L31.411 50.3829L32.1794 36.2069L24.0544 49.0328L22.656 49.2262L15.3431 38.2451L14.5929 52.6997L11.6721 53.1028L12.6991 33.4935L15.1647 33.156L23.3734 45.7362L32.7476 30.7376L35.3624 30.3772L35.3588 30.3706Z" fill="white"/>
<path d="M39.6379 41.2666C38.5636 34.9355 42.7736 29.1255 50.6218 28.0473C56.9805 27.1724 61.2159 29.9283 62.0244 34.6832C63.0988 41.0142 58.856 46.8275 51.0078 47.9056C44.6491 48.7806 40.4464 46.0214 39.6379 41.2666V41.2666ZM58.9798 35.2697C58.3971 31.8453 55.5055 29.8529 50.7929 30.5018C44.8895 31.3145 41.8413 35.9055 42.6534 40.6865C43.2361 44.1109 46.1569 46.1001 50.8731 45.4512C56.7765 44.6385 59.792 40.0541 58.9798 35.2697V35.2697Z" fill="white"/>
<path d="M71.0781 27.877L63.8089 28.8765L63.9255 26.4417L81.5375 24.02L81.3918 26.4581L74.1227 27.4575L73.2122 44.632L70.2004 45.0449L71.0817 27.877H71.0781Z" fill="white"/>
<path d="M82.437 35.3779C81.3627 29.0468 85.5727 23.2368 93.4208 22.1587C99.7795 21.2837 104.015 24.0396 104.823 28.7945C105.898 35.1256 101.655 40.9389 93.8069 42.017C87.4482 42.8919 83.2455 40.1327 82.437 35.3779V35.3779ZM101.779 29.3811C101.196 25.9566 98.3046 23.9643 93.592 24.6131C87.6886 25.4258 84.6403 30.0168 85.4525 34.7979C86.0352 38.2223 88.9559 40.2114 93.6721 39.5625C99.5719 38.7499 102.591 34.1654 101.779 29.3811V29.3811Z" fill="white"/>
<path d="M70.2332 86.3115L71.231 86.1738L72.167 91.6857L75.9545 91.1646L76.0856 91.9478L71.3002 92.6065L70.2295 86.3147L70.2332 86.3115Z" fill="white"/>
<path d="M77.0398 86.177L74.6435 86.508L74.5123 85.7248L80.2956 84.9285L80.4267 85.7117L78.0304 86.0426L78.9663 91.5545L77.9757 91.6921L77.0398 86.1803V86.177Z" fill="white"/>
<path d="M81.3845 84.7778L84.3308 84.3715C86.5778 84.0635 88.3223 85.1285 88.6427 86.9996C88.9632 88.8708 87.6485 90.3552 85.4015 90.6665L82.4552 91.0729L81.3845 84.7811V84.7778ZM85.2085 89.8899C86.9383 89.6507 87.8852 88.5463 87.6449 87.134C87.4045 85.7216 86.1335 84.922 84.4073 85.1613L82.5208 85.4201L83.3256 90.1488L85.2121 89.8899H85.2085Z" fill="white"/>
<path d="M94.7938 87.7631L91.0755 88.2743L90.5729 89.9521L89.5423 90.093L91.64 83.3654L92.6306 83.2278L96.877 89.0837L95.8281 89.2279L94.7902 87.7598L94.7938 87.7631ZM94.3204 87.0913L92.2882 84.2141L91.3049 87.5042L94.3204 87.088V87.0913Z" fill="white"/>
<path d="M97.5616 88.4118C97.4997 88.0514 97.7656 87.7564 98.1371 87.7073C98.4976 87.6581 98.8399 87.8679 98.9018 88.2283C98.9638 88.5888 98.7088 88.8903 98.3483 88.9394C97.9768 88.9919 97.6236 88.7723 97.5653 88.4118H97.5616Z" fill="white"/>
</g>
<defs>
<linearGradient id="paint0_linear_98_392" x1="-5.80875" y1="74.3343" x2="795.962" y2="-95.8429" gradientUnits="userSpaceOnUse">
<stop stop-color="#E10B17"/>
<stop offset="0.17" stop-color="#9D0710"/>
<stop offset="0.35" stop-color="#5A0409"/>
<stop offset="0.51" stop-color="#290204"/>
<stop offset="0.63" stop-color="#0B0001"/>
<stop offset="0.69"/>
</linearGradient>
<linearGradient id="paint1_linear_98_392" x1="-5.62302" y1="75.219" x2="796.152" y2="-94.9543" gradientUnits="userSpaceOnUse">
<stop stop-color="#E10B17"/>
<stop offset="0.17" stop-color="#9D0710"/>
<stop offset="0.35" stop-color="#5A0409"/>
<stop offset="0.51" stop-color="#290204"/>
<stop offset="0.63" stop-color="#0B0001"/>
<stop offset="0.69"/>
</linearGradient>
<linearGradient id="paint2_linear_98_392" x1="-5.45551" y1="75.9989" x2="796.315" y2="-94.1744" gradientUnits="userSpaceOnUse">
<stop stop-color="#E10B17"/>
<stop offset="0.17" stop-color="#9D0710"/>
<stop offset="0.35" stop-color="#5A0409"/>
<stop offset="0.51" stop-color="#290204"/>
<stop offset="0.63" stop-color="#0B0001"/>
<stop offset="0.69"/>
</linearGradient>
<linearGradient id="paint3_linear_98_392" x1="-4.39936" y1="80.9733" x2="797.372" y2="-89.1999" gradientUnits="userSpaceOnUse">
<stop stop-color="#E10B17"/>
<stop offset="0.17" stop-color="#9D0710"/>
<stop offset="0.35" stop-color="#5A0409"/>
<stop offset="0.51" stop-color="#290204"/>
<stop offset="0.63" stop-color="#0B0001"/>
<stop offset="0.69"/>
</linearGradient>
<clipPath id="clip0_98_392">
<rect width="110.385" height="99.3243" fill="white" transform="translate(6.30769 6)"/>
</clipPath>
</defs>
</svg>
