<svg width="60" height="60" viewBox="0 0 60 60" fill="none" xmlns="http://www.w3.org/2000/svg">
<path d="M0.102936 48.7269C0.102936 48.5935 0.118073 48.4602 0.155914 48.3343L6.85387 25.3125C6.89928 25.1569 6.96739 25.0162 7.06578 24.8829C7.76207 23.9273 10.918 20.0163 15.2017 21.2755C19.5535 22.5496 21.5742 25.3495 21.9526 25.9347C21.9981 26.0088 22.0586 26.0828 22.1191 26.1421L31.2844 35.6086C31.5568 35.8901 31.9428 36.053 32.3364 36.053H40.9567C41.7589 36.053 42.4098 35.416 42.4098 34.6308C42.4098 33.9271 42.932 33.3346 43.6434 33.2234L57.8567 31.0605C58.7346 30.9272 59.5369 31.5938 59.5369 32.4679V43.4751C59.5369 44.3269 58.7725 44.9936 57.9097 44.8899L54.1482 44.4455C53.0584 44.3195 52.2183 45.3714 52.6194 46.3714L56.8274 57.0082C57.1983 57.9415 56.4944 58.9415 55.4727 58.9415H47.5789C46.8827 58.9415 46.2923 58.46 46.1561 57.8008L43.7115 45.8232C43.5753 45.1417 42.9471 44.6603 42.2357 44.6825L29.0063 45.0973C28.5976 45.1121 28.1965 44.9491 27.9089 44.6603L21.3775 38.0234C20.5601 37.1937 19.1297 37.6085 18.9026 38.7344L16.9424 48.5046C16.7911 49.2676 17.2906 50.0083 18.0701 50.1713L34.3874 53.5342C34.8793 53.6379 35.2804 53.9786 35.4545 54.4379L36.4384 57.0823C36.779 57.9933 36.1054 58.9637 35.1139 58.9933L11.5235 59.6007C5.26452 59.7637 0.102936 54.8378 0.102936 48.712V48.7269Z" fill="#E10B17"/>
<path d="M26.4936 22.7644L11.6673 17.12C11.4403 17.0311 11.2738 16.8386 11.2284 16.6089C10.7364 14.2238 8.58701 1.24625 20.0833 0.112939C30.4367 -0.909264 32.3288 5.28321 32.6769 7.57206C32.7451 8.00168 32.3893 8.38686 31.9428 8.37205L22.49 8.03872C22.0889 8.02391 21.7483 8.34241 21.7483 8.73499V12.6609C21.7483 12.9571 21.9451 13.2238 22.2327 13.3201L32.1017 16.5571C32.4726 16.6756 32.6769 17.0608 32.5558 17.4237C32.2758 18.283 31.6855 19.8681 30.6335 21.4681C29.7556 22.8088 28.0149 23.3421 26.4936 22.7644V22.7644Z" fill="#E10B17"/>
</svg>
